<mxfile host="app.diagrams.net" modified="2023-11-23T12:29:06.428Z" agent="Mozilla/5.0 (Windows NT 10.0; Win64; x64) AppleWebKit/537.36 (KHTML, like Gecko) Chrome/119.0.0.0 Safari/537.36" version="22.1.3" etag="r1dR-uQW6vmgbROg5ovG" type="github">
  <diagram name="Страница — 1" id="72FgrOuQ5Zt7AJluy6WT">
    <mxGraphModel>
      <root>
        <mxCell id="0" />
        <mxCell id="1" parent="0" />
      </root>
    </mxGraphModel>
  </diagram>
</mxfile>
